<svg xmlns="http://www.w3.org/2000/svg" viewBox="0 0 800 450" width="800" height="450" role="img">
  <defs>
    <linearGradient id="bg" x1="0" y1="0" x2="1" y2="1" gradientTransform="rotate(24 0.5 0.5)">
      <stop offset="0" stop-color="#002051"/>
      <stop offset="1" stop-color="#0d52b9"/>
    </linearGradient>
    <clipPath id="frame"><rect width="800" height="450"/></clipPath>
  </defs>
  <rect width="800" height="450" fill="url(#bg)"/>
  <g clip-path="url(#frame)">
  <circle cx="20" cy="20" r="8.4" fill="#61c000" opacity="0.350"/><circle cx="66" cy="20" r="7.7" fill="#61c000" opacity="0.335"/><circle cx="112" cy="20" r="9.2" fill="#61c000" opacity="0.321"/><circle cx="158" cy="20" r="7.7" fill="#61c000" opacity="0.306"/><circle cx="204" cy="20" r="7.6" fill="#61c000" opacity="0.292"/><circle cx="250" cy="20" r="7.1" fill="#61c000" opacity="0.277"/><circle cx="296" cy="20" r="3.8" fill="#61c000" opacity="0.262"/><circle cx="342" cy="20" r="7.6" fill="#61c000" opacity="0.248"/><circle cx="388" cy="20" r="5.2" fill="#61c000" opacity="0.233"/><circle cx="434" cy="20" r="6.9" fill="#61c000" opacity="0.219"/><circle cx="480" cy="20" r="6.1" fill="#61c000" opacity="0.204"/><circle cx="526" cy="20" r="6.4" fill="#61c000" opacity="0.190"/><circle cx="572" cy="20" r="5.8" fill="#61c000" opacity="0.175"/><circle cx="618" cy="20" r="4.8" fill="#61c000" opacity="0.160"/><circle cx="664" cy="20" r="3.5" fill="#61c000" opacity="0.146"/><circle cx="710" cy="20" r="5.3" fill="#61c000" opacity="0.131"/><circle cx="756" cy="20" r="4.0" fill="#61c000" opacity="0.117"/><circle cx="802" cy="20" r="4.9" fill="#61c000" opacity="0.102"/><circle cx="20" cy="66" r="9.9" fill="#61c000" opacity="0.350"/><circle cx="66" cy="66" r="3.8" fill="#61c000" opacity="0.335"/><circle cx="112" cy="66" r="3.8" fill="#61c000" opacity="0.321"/><circle cx="158" cy="66" r="7.4" fill="#61c000" opacity="0.306"/><circle cx="204" cy="66" r="3.4" fill="#61c000" opacity="0.292"/><circle cx="250" cy="66" r="7.1" fill="#61c000" opacity="0.277"/><circle cx="296" cy="66" r="3.4" fill="#61c000" opacity="0.262"/><circle cx="342" cy="66" r="5.6" fill="#61c000" opacity="0.248"/><circle cx="388" cy="66" r="3.9" fill="#61c000" opacity="0.233"/><circle cx="434" cy="66" r="5.2" fill="#61c000" opacity="0.219"/><circle cx="480" cy="66" r="7.0" fill="#61c000" opacity="0.204"/><circle cx="526" cy="66" r="6.5" fill="#61c000" opacity="0.190"/><circle cx="572" cy="66" r="5.5" fill="#61c000" opacity="0.175"/><circle cx="618" cy="66" r="3.9" fill="#61c000" opacity="0.160"/><circle cx="664" cy="66" r="3.1" fill="#61c000" opacity="0.146"/><circle cx="710" cy="66" r="3.3" fill="#61c000" opacity="0.131"/><circle cx="756" cy="66" r="4.8" fill="#61c000" opacity="0.117"/><circle cx="802" cy="66" r="3.0" fill="#61c000" opacity="0.102"/><circle cx="20" cy="112" r="8.7" fill="#61c000" opacity="0.350"/><circle cx="66" cy="112" r="4.8" fill="#61c000" opacity="0.335"/><circle cx="112" cy="112" r="9.2" fill="#61c000" opacity="0.321"/><circle cx="158" cy="112" r="8.4" fill="#61c000" opacity="0.306"/><circle cx="204" cy="112" r="4.3" fill="#61c000" opacity="0.292"/><circle cx="250" cy="112" r="4.6" fill="#61c000" opacity="0.277"/><circle cx="296" cy="112" r="3.5" fill="#61c000" opacity="0.262"/><circle cx="342" cy="112" r="3.9" fill="#61c000" opacity="0.248"/><circle cx="388" cy="112" r="4.6" fill="#61c000" opacity="0.233"/><circle cx="434" cy="112" r="4.2" fill="#61c000" opacity="0.219"/><circle cx="480" cy="112" r="3.0" fill="#61c000" opacity="0.204"/><circle cx="526" cy="112" r="3.8" fill="#61c000" opacity="0.190"/><circle cx="572" cy="112" r="4.7" fill="#61c000" opacity="0.175"/><circle cx="618" cy="112" r="5.1" fill="#61c000" opacity="0.160"/><circle cx="664" cy="112" r="4.0" fill="#61c000" opacity="0.146"/><circle cx="710" cy="112" r="5.3" fill="#61c000" opacity="0.131"/><circle cx="756" cy="112" r="4.4" fill="#61c000" opacity="0.117"/><circle cx="802" cy="112" r="4.0" fill="#61c000" opacity="0.102"/><circle cx="20" cy="158" r="5.7" fill="#61c000" opacity="0.350"/><circle cx="66" cy="158" r="9.2" fill="#61c000" opacity="0.335"/><circle cx="112" cy="158" r="5.4" fill="#61c000" opacity="0.321"/><circle cx="158" cy="158" r="8.1" fill="#61c000" opacity="0.306"/><circle cx="204" cy="158" r="4.5" fill="#61c000" opacity="0.292"/><circle cx="250" cy="158" r="4.8" fill="#61c000" opacity="0.277"/><circle cx="296" cy="158" r="8.2" fill="#61c000" opacity="0.262"/><circle cx="342" cy="158" r="7.9" fill="#61c000" opacity="0.248"/><circle cx="388" cy="158" r="4.0" fill="#61c000" opacity="0.233"/><circle cx="434" cy="158" r="7.2" fill="#61c000" opacity="0.219"/><circle cx="480" cy="158" r="5.4" fill="#61c000" opacity="0.204"/><circle cx="526" cy="158" r="5.6" fill="#61c000" opacity="0.190"/><circle cx="572" cy="158" r="4.4" fill="#61c000" opacity="0.175"/><circle cx="618" cy="158" r="3.0" fill="#61c000" opacity="0.160"/><circle cx="664" cy="158" r="5.3" fill="#61c000" opacity="0.146"/><circle cx="710" cy="158" r="5.6" fill="#61c000" opacity="0.131"/><circle cx="756" cy="158" r="3.6" fill="#61c000" opacity="0.117"/><circle cx="802" cy="158" r="4.6" fill="#61c000" opacity="0.102"/><circle cx="20" cy="204" r="9.5" fill="#61c000" opacity="0.350"/><circle cx="66" cy="204" r="6.9" fill="#61c000" opacity="0.335"/><circle cx="112" cy="204" r="3.8" fill="#61c000" opacity="0.321"/><circle cx="158" cy="204" r="6.3" fill="#61c000" opacity="0.306"/><circle cx="204" cy="204" r="4.6" fill="#61c000" opacity="0.292"/><circle cx="250" cy="204" r="3.1" fill="#61c000" opacity="0.277"/><circle cx="296" cy="204" r="6.8" fill="#61c000" opacity="0.262"/><circle cx="342" cy="204" r="5.4" fill="#61c000" opacity="0.248"/><circle cx="388" cy="204" r="4.0" fill="#61c000" opacity="0.233"/><circle cx="434" cy="204" r="5.5" fill="#61c000" opacity="0.219"/><circle cx="480" cy="204" r="5.9" fill="#61c000" opacity="0.204"/><circle cx="526" cy="204" r="4.6" fill="#61c000" opacity="0.190"/><circle cx="572" cy="204" r="5.6" fill="#61c000" opacity="0.175"/><circle cx="618" cy="204" r="5.1" fill="#61c000" opacity="0.160"/><circle cx="664" cy="204" r="4.7" fill="#61c000" opacity="0.146"/><circle cx="710" cy="204" r="3.9" fill="#61c000" opacity="0.131"/><circle cx="756" cy="204" r="5.1" fill="#61c000" opacity="0.117"/><circle cx="802" cy="204" r="3.2" fill="#61c000" opacity="0.102"/><circle cx="20" cy="250" r="8.4" fill="#61c000" opacity="0.350"/><circle cx="66" cy="250" r="9.1" fill="#61c000" opacity="0.335"/><circle cx="112" cy="250" r="3.6" fill="#61c000" opacity="0.321"/><circle cx="158" cy="250" r="7.7" fill="#61c000" opacity="0.306"/><circle cx="204" cy="250" r="4.1" fill="#61c000" opacity="0.292"/><circle cx="250" cy="250" r="4.7" fill="#61c000" opacity="0.277"/><circle cx="296" cy="250" r="6.6" fill="#61c000" opacity="0.262"/><circle cx="342" cy="250" r="3.5" fill="#61c000" opacity="0.248"/><circle cx="388" cy="250" r="6.6" fill="#61c000" opacity="0.233"/><circle cx="434" cy="250" r="6.8" fill="#61c000" opacity="0.219"/><circle cx="480" cy="250" r="3.1" fill="#61c000" opacity="0.204"/><circle cx="526" cy="250" r="6.1" fill="#61c000" opacity="0.190"/><circle cx="572" cy="250" r="5.8" fill="#61c000" opacity="0.175"/><circle cx="618" cy="250" r="5.5" fill="#61c000" opacity="0.160"/><circle cx="664" cy="250" r="3.9" fill="#61c000" opacity="0.146"/><circle cx="710" cy="250" r="3.6" fill="#61c000" opacity="0.131"/><circle cx="756" cy="250" r="5.2" fill="#61c000" opacity="0.117"/><circle cx="802" cy="250" r="3.4" fill="#61c000" opacity="0.102"/><circle cx="20" cy="296" r="5.1" fill="#61c000" opacity="0.350"/><circle cx="66" cy="296" r="5.9" fill="#61c000" opacity="0.335"/><circle cx="112" cy="296" r="6.1" fill="#61c000" opacity="0.321"/><circle cx="158" cy="296" r="6.9" fill="#61c000" opacity="0.306"/><circle cx="204" cy="296" r="6.3" fill="#61c000" opacity="0.292"/><circle cx="250" cy="296" r="5.5" fill="#61c000" opacity="0.277"/><circle cx="296" cy="296" r="6.9" fill="#61c000" opacity="0.262"/><circle cx="342" cy="296" r="4.8" fill="#61c000" opacity="0.248"/><circle cx="388" cy="296" r="7.2" fill="#61c000" opacity="0.233"/><circle cx="434" cy="296" r="7.1" fill="#61c000" opacity="0.219"/><circle cx="480" cy="296" r="6.5" fill="#61c000" opacity="0.204"/><circle cx="526" cy="296" r="4.0" fill="#61c000" opacity="0.190"/><circle cx="572" cy="296" r="3.9" fill="#61c000" opacity="0.175"/><circle cx="618" cy="296" r="6.2" fill="#61c000" opacity="0.160"/><circle cx="664" cy="296" r="3.1" fill="#61c000" opacity="0.146"/><circle cx="710" cy="296" r="3.5" fill="#61c000" opacity="0.131"/><circle cx="756" cy="296" r="4.4" fill="#61c000" opacity="0.117"/><circle cx="802" cy="296" r="3.0" fill="#61c000" opacity="0.102"/><circle cx="20" cy="342" r="9.8" fill="#61c000" opacity="0.350"/><circle cx="66" cy="342" r="7.4" fill="#61c000" opacity="0.335"/><circle cx="112" cy="342" r="3.0" fill="#61c000" opacity="0.321"/><circle cx="158" cy="342" r="5.6" fill="#61c000" opacity="0.306"/><circle cx="204" cy="342" r="3.1" fill="#61c000" opacity="0.292"/><circle cx="250" cy="342" r="3.1" fill="#61c000" opacity="0.277"/><circle cx="296" cy="342" r="3.2" fill="#61c000" opacity="0.262"/><circle cx="342" cy="342" r="7.1" fill="#61c000" opacity="0.248"/><circle cx="388" cy="342" r="5.2" fill="#61c000" opacity="0.233"/><circle cx="434" cy="342" r="5.7" fill="#61c000" opacity="0.219"/><circle cx="480" cy="342" r="4.6" fill="#61c000" opacity="0.204"/><circle cx="526" cy="342" r="3.6" fill="#61c000" opacity="0.190"/><circle cx="572" cy="342" r="4.3" fill="#61c000" opacity="0.175"/><circle cx="618" cy="342" r="5.2" fill="#61c000" opacity="0.160"/><circle cx="664" cy="342" r="5.1" fill="#61c000" opacity="0.146"/><circle cx="710" cy="342" r="4.1" fill="#61c000" opacity="0.131"/><circle cx="756" cy="342" r="3.8" fill="#61c000" opacity="0.117"/><circle cx="802" cy="342" r="3.3" fill="#61c000" opacity="0.102"/><circle cx="20" cy="388" r="7.0" fill="#61c000" opacity="0.350"/><circle cx="66" cy="388" r="7.1" fill="#61c000" opacity="0.335"/><circle cx="112" cy="388" r="6.9" fill="#61c000" opacity="0.321"/><circle cx="158" cy="388" r="4.1" fill="#61c000" opacity="0.306"/><circle cx="204" cy="388" r="7.0" fill="#61c000" opacity="0.292"/><circle cx="250" cy="388" r="7.3" fill="#61c000" opacity="0.277"/><circle cx="296" cy="388" r="4.2" fill="#61c000" opacity="0.262"/><circle cx="342" cy="388" r="6.5" fill="#61c000" opacity="0.248"/><circle cx="388" cy="388" r="6.3" fill="#61c000" opacity="0.233"/><circle cx="434" cy="388" r="5.9" fill="#61c000" opacity="0.219"/><circle cx="480" cy="388" r="4.7" fill="#61c000" opacity="0.204"/><circle cx="526" cy="388" r="6.1" fill="#61c000" opacity="0.190"/><circle cx="572" cy="388" r="4.6" fill="#61c000" opacity="0.175"/><circle cx="618" cy="388" r="4.8" fill="#61c000" opacity="0.160"/><circle cx="664" cy="388" r="4.0" fill="#61c000" opacity="0.146"/><circle cx="710" cy="388" r="5.5" fill="#61c000" opacity="0.131"/><circle cx="756" cy="388" r="3.7" fill="#61c000" opacity="0.117"/><circle cx="802" cy="388" r="4.5" fill="#61c000" opacity="0.102"/><circle cx="20" cy="434" r="3.2" fill="#61c000" opacity="0.350"/><circle cx="66" cy="434" r="6.9" fill="#61c000" opacity="0.335"/><circle cx="112" cy="434" r="7.5" fill="#61c000" opacity="0.321"/><circle cx="158" cy="434" r="7.5" fill="#61c000" opacity="0.306"/><circle cx="204" cy="434" r="5.1" fill="#61c000" opacity="0.292"/><circle cx="250" cy="434" r="5.2" fill="#61c000" opacity="0.277"/><circle cx="296" cy="434" r="6.9" fill="#61c000" opacity="0.262"/><circle cx="342" cy="434" r="4.0" fill="#61c000" opacity="0.248"/><circle cx="388" cy="434" r="3.7" fill="#61c000" opacity="0.233"/><circle cx="434" cy="434" r="6.5" fill="#61c000" opacity="0.219"/><circle cx="480" cy="434" r="3.9" fill="#61c000" opacity="0.204"/><circle cx="526" cy="434" r="3.1" fill="#61c000" opacity="0.190"/><circle cx="572" cy="434" r="4.7" fill="#61c000" opacity="0.175"/><circle cx="618" cy="434" r="5.8" fill="#61c000" opacity="0.160"/><circle cx="664" cy="434" r="4.0" fill="#61c000" opacity="0.146"/><circle cx="710" cy="434" r="3.5" fill="#61c000" opacity="0.131"/><circle cx="756" cy="434" r="3.7" fill="#61c000" opacity="0.117"/><circle cx="802" cy="434" r="4.3" fill="#61c000" opacity="0.102"/>
  <g transform="translate(484 139) scale(0.88)" opacity="0.56"><path d="M9 0L10.0182 7.98177L18 9L10.0182 10.0182L9 18L7.98177 10.0182L0 9L7.98177 7.98177L9 0Z" fill="#61c000"/></g>
  <g transform="translate(251 98) scale(1.56)" opacity="0.56"><path d="M9 0L10.0182 7.98177L18 9L10.0182 10.0182L9 18L7.98177 10.0182L0 9L7.98177 7.98177L9 0Z" fill="#61c000"/></g>
  <g transform="translate(695 353) scale(1.33)" opacity="0.56"><path d="M9 0L10.0182 7.98177L18 9L10.0182 10.0182L9 18L7.98177 10.0182L0 9L7.98177 7.98177L9 0Z" fill="#61c000"/></g>
  <g transform="translate(146 104) scale(1.49)" opacity="0.56"><path d="M9 0L10.0182 7.98177L18 9L10.0182 10.0182L9 18L7.98177 10.0182L0 9L7.98177 7.98177L9 0Z" fill="#61c000"/></g>
  </g>
</svg>
