<svg xmlns="http://www.w3.org/2000/svg" viewBox="0 0 800 450" width="800" height="450" role="img">
  <defs>
    <linearGradient id="bg" x1="0" y1="0" x2="1" y2="1" gradientTransform="rotate(3 0.5 0.5)">
      <stop offset="0" stop-color="#5495fe"/>
      <stop offset="1" stop-color="#0362e4"/>
    </linearGradient>
    <clipPath id="frame"><rect width="800" height="450"/></clipPath>
  </defs>
  <rect width="800" height="450" fill="url(#bg)"/>
  <g clip-path="url(#frame)">
  <polygon points="-184,450 -74,450 236,0 126,0" fill="#ffffff" opacity="0.070"/>
  <polygon points="6,450 116,450 426,0 316,0" fill="#ffffff" opacity="0.114"/>
  <polygon points="196,450 306,450 616,0 506,0" fill="#ffffff" opacity="0.158"/>
  <polygon points="386,450 496,450 806,0 696,0" fill="#ffffff" opacity="0.070"/>
  <polygon points="576,450 686,450 996,0 886,0" fill="#ffffff" opacity="0.114"/>
  <polygon points="766,450 876,450 1186,0 1076,0" fill="#ffffff" opacity="0.158"/>
  <g transform="translate(413 246) scale(1.55)" opacity="0.32"><path d="M9 0L10.0182 7.98177L18 9L10.0182 10.0182L9 18L7.98177 10.0182L0 9L7.98177 7.98177L9 0Z" fill="#ffffff"/></g>
  <g transform="translate(418 83) scale(1.82)" opacity="0.32"><path d="M9 0L10.0182 7.98177L18 9L10.0182 10.0182L9 18L7.98177 10.0182L0 9L7.98177 7.98177L9 0Z" fill="#ffffff"/></g>
  <g transform="translate(205 259) scale(1.06)" opacity="0.32"><path d="M9 0L10.0182 7.98177L18 9L10.0182 10.0182L9 18L7.98177 10.0182L0 9L7.98177 7.98177L9 0Z" fill="#ffffff"/></g>
  <g transform="translate(483 254) scale(1.80)" opacity="0.32"><path d="M9 0L10.0182 7.98177L18 9L10.0182 10.0182L9 18L7.98177 10.0182L0 9L7.98177 7.98177L9 0Z" fill="#ffffff"/></g>
  </g>
</svg>
